<?xml version="1.0" encoding="UTF-8"?><svg id="Camada_1" xmlns="http://www.w3.org/2000/svg" viewBox="0 0 82 58.29"><path d="m1.17,25.77L26.54,1.52c2.2-2.1,5.68-2.02,7.78.18h0c2.1,2.2,2.02,5.68-.18,7.78l-24.69,23.6" style="fill:#737373;"/><path d="m5.5,23.64h71c3.04,0,5.5,2.46,5.5,5.5h0c0,3.04-2.46,5.5-5.5,5.5H5.5c-3.04,0-5.5-2.46-5.5-5.5h0c0-3.04,2.46-5.5,5.5-5.5Z" style="fill:#737373;"/><path d="m9.45,25.21l24.69,23.6c2.2,2.1,2.27,5.58.18,7.78h0c-2.1,2.2-5.58,2.27-7.78.18L1.17,32.52" style="fill:#737373;"/></svg>