<?xml version="1.0" encoding="UTF-8"?><svg id="Camada_1" xmlns="http://www.w3.org/2000/svg" viewBox="0 0 383.76 338.8"><path d="m267.69,303.29c0,7.29.12,14.36-.03,21.43-.21,9.58-8,15.84-16.72,13.63-5.88-1.49-9.85-6.44-9.96-12.82-.13-7.22-.03-14.44-.03-22.33h-5.07c-38.34,0-76.68.05-115.02-.02-32.08-.06-58.74-21.24-65.75-52.4-1.18-5.23-1.5-10.75-1.54-16.14-.16-22.68-.17-45.36.03-68.03.03-3.97-1-6.19-4.66-8.09-10.99-5.7-21.75-11.86-32.58-17.87C6.22,135.05.08,126.79,0,114.92c-.08-11.9,5.98-20.31,16.09-25.9C65.43,61.75,114.73,34.42,164.22,7.44c17.87-9.74,36.64-9.99,54.48-.31,50.04,27.14,99.85,54.7,149.57,82.42,20.64,11.51,20.61,38.31.2,50.35-11.5,6.78-23.3,13.09-35.08,19.39-2.61,1.4-3.43,2.98-3.42,5.84.1,23.79.23,47.58,0,71.37-.3,32.64-22.25,59.01-54.2,65.5-2.56.52-5.16.83-8.09,1.29Zm-8.8-133.26c.33-.26.65-.52.98-.78.61-.29,1.24-.55,1.84-.87,30.6-16.86,61.2-33.72,91.76-50.64,1.23-.68,2.14-1.96,3.19-2.97-1.07-.99-2-2.25-3.24-2.94-48.73-26.93-97.46-53.85-146.25-80.68-10.15-5.58-20.58-5.62-30.75-.02-48.66,26.77-97.27,53.62-145.88,80.49-1.37.76-2.45,2.05-3.66,3.09,1.16,1.07,2.17,2.42,3.51,3.16,48.48,26.8,96.99,53.55,145.52,80.27,10.44,5.75,21,5.82,31.51.12,8.44-4.58,16.85-9.23,25.25-13.88.77-.43,1.43-1.08,2.71-2.07-1.41-1.12-2.59-1.9-3.57-2.88-16.19-16.12-32.32-32.28-48.53-48.38-3.84-3.81-5.79-8.17-4.47-13.55,2.58-10.52,15.04-13.6,23.1-5.62,18.21,18.04,36.32,36.17,54.42,54.31,1.07,1.07,1.72,2.55,2.57,3.85Zm-178.4,6.06c0,22.21,0,43.62.02,65.04,0,.82.2,1.65.36,2.47,3.8,19.36,19.8,32.79,39.67,32.86,38.9.12,77.8.04,116.7.03,1.08,0,2.16-.13,3.31-.21v-65.67c-6.93,3.8-13.37,7.39-19.86,10.87-19.45,10.43-38.92,10.3-58.26-.23-15.89-8.65-31.68-17.48-47.53-26.22-11.3-6.23-22.61-12.44-34.41-18.93Zm222.77-.11c-11.23,6.2-21.63,12.06-32.17,17.65-2.6,1.38-3.47,2.94-3.46,5.82.11,24.2.06,48.39.07,72.59,0,1.22.13,2.44.2,3.79.77,0,1.3.04,1.82,0,.83-.08,1.68-.13,2.48-.35,15.7-4.29,26.17-14.07,29.84-29.97,1.42-6.12,1.11-12.7,1.16-19.07.14-16.54.05-33.08.05-50.46Z"/></svg>