<svg width="32" height="32" viewBox="0 0 32 32" fill="none" xmlns="http://www.w3.org/2000/svg">
<path d="M1.96045 12.121H30.0404V21.771C30.0404 22.9346 29.5782 24.0506 28.7554 24.8734C27.9326 25.6962 26.8166 26.1585 25.6529 26.1585H6.34995C5.77377 26.1585 5.20324 26.045 4.67093 25.8245C4.13861 25.604 3.65494 25.2808 3.24752 24.8734C2.4247 24.0506 1.96245 22.9346 1.96245 21.771V12.121H1.96045Z" fill="#0EB301"/>
<path d="M12.2705 18.2913L12.1538 18.408C11.9586 18.6032 11.9586 18.9198 12.1538 19.1151L14.3812 21.3424C14.5765 21.5377 14.8931 21.5377 15.0883 21.3424L15.205 21.2258C15.4003 21.0305 15.4003 20.7139 15.205 20.5187L12.9776 18.2913C12.7824 18.096 12.4658 18.096 12.2705 18.2913Z" fill="#60DD56" stroke="#EEEEEE" stroke-width="2" stroke-miterlimit="10"/>
<path d="M19.0234 15.8726L14.3565 20.5395C14.1612 20.7348 14.1612 21.0514 14.3565 21.2467L14.4732 21.3633C14.6684 21.5586 14.985 21.5586 15.1803 21.3633L19.8472 16.6964C20.0424 16.5012 20.0424 16.1846 19.8472 15.9893L19.7305 15.8726C19.5352 15.6774 19.2187 15.6774 19.0234 15.8726Z" fill="#B3B2B2" stroke="#EEEEEE" stroke-width="2" stroke-miterlimit="10"/>
<path d="M30.0379 8.33949V11.1195H1.96291V8.33949C1.96155 8.02443 2.02097 7.71205 2.13791 7.41949C2.32238 6.95339 2.64271 6.55351 3.05731 6.27176C3.47191 5.99001 3.96164 5.83941 4.46291 5.83949H27.5379C28.201 5.83949 28.8368 6.10288 29.3057 6.57173C29.7745 7.04057 30.0379 7.67645 30.0379 8.33949Z" fill="#0EB301"/>
<path d="M22.2929 11.1195H19.7479L16.4829 5.83949H19.0279L22.2929 11.1195Z" fill="#60DD56"/>
<path d="M17.1878 11.1195H14.6278L11.3628 5.83949H13.9228L17.1878 11.1195Z" fill="#60DD56"/>
<path d="M12.0827 11.1195H9.5327L6.2627 5.83949H8.8177L12.0827 11.1195Z" fill="#60DD56"/>
<path d="M6.9727 11.1195H4.4327L2.1377 7.4195C2.27854 7.0657 2.49805 6.74859 2.77958 6.49217C3.06112 6.23576 3.39731 6.04676 3.7627 5.9395L6.9727 11.1195Z" fill="#60DD56"/>
<path d="M27.4075 11.1195H24.8475L21.5825 5.83949H24.1375L27.4075 11.1195Z" fill="#60DD56"/>
<path d="M30.0379 8.33949V11.1195H29.9679L26.6929 5.83949H27.5379C28.2009 5.83949 28.8368 6.10288 29.3056 6.57173C29.7745 7.04057 30.0379 7.67645 30.0379 8.33949Z" fill="#60DD56"/>
</svg>
