<svg width="32" height="32" viewBox="0 0 32 32" fill="none" xmlns="http://www.w3.org/2000/svg">
<path d="M1.96045 16.709H30.0404V26.359C30.0409 26.9355 29.9278 27.5064 29.7075 28.0391C29.4872 28.5718 29.1641 29.0559 28.7566 29.4637C28.3492 29.8715 27.8653 30.195 27.3328 30.4157C26.8002 30.6364 26.2294 30.75 25.6529 30.75H6.34995C5.77377 30.75 5.20324 30.6365 4.67093 30.416C4.13861 30.1955 3.65494 29.8724 3.24752 29.4649C2.4247 28.6421 1.96245 27.5262 1.96245 26.3625V16.7125L1.96045 16.709Z" fill="#706F6F"/>
<path d="M27.0676 2.83551L28.0861 5.4225L1.96306 15.7075L0.944556 13.121C0.827667 12.8281 0.76858 12.5154 0.770556 12.2C0.772098 11.8194 0.860183 11.4441 1.02815 11.1025C1.19611 10.761 1.43955 10.4621 1.74006 10.2285C1.9273 10.0831 2.1344 9.96521 2.35506 9.8785L23.8256 1.42551C24.4425 1.1826 25.1306 1.19469 25.7386 1.45912C26.3465 1.72354 26.8246 2.21863 27.0676 2.83551Z" fill="#706F6F"/>
<path d="M20.8796 8.2595L18.5116 9.192L13.5391 5.4755L15.9076 4.543L20.8796 8.2595Z" fill="#B2B2B2"/>
<path d="M16.1294 10.13L13.7474 11.068L8.7749 7.35101L11.1569 6.41301L16.1294 10.13Z" fill="#B2B2B2"/>
<path d="M11.3793 12L9.0063 12.9345L4.0293 9.21951L6.4068 8.28351L11.3793 12Z" fill="#B2B2B2"/>
<path d="M6.62451 13.872L4.26151 14.8025L0.770508 12.2C0.77205 11.8194 0.860135 11.4441 1.0281 11.1025C1.19606 10.761 1.4395 10.4621 1.74001 10.2285L6.62451 13.872Z" fill="#B2B2B2"/>
<path d="M25.6392 6.38601L23.2572 7.32351L18.2847 3.60701L20.6622 2.67101L25.6392 6.38601Z" fill="#B2B2B2"/>
<path d="M27.0676 2.83551L28.0861 5.42251L28.0211 5.44801L23.0396 1.73501L23.8256 1.42551C24.4424 1.1826 25.1306 1.19469 25.7386 1.45912C26.3465 1.72354 26.8246 2.21864 27.0676 2.83551Z" fill="#B2B2B2"/>
<path d="M13.2383 23.754V21.004C13.2416 20.9003 13.2718 20.7993 13.3258 20.7108C13.3799 20.6223 13.4559 20.5493 13.5466 20.4989C13.6372 20.4486 13.7394 20.4226 13.8431 20.4235C13.9468 20.4243 14.0485 20.4521 14.1383 20.504L16.2383 21.854L18.4883 23.254C18.5713 23.3024 18.6401 23.3718 18.688 23.4551C18.7358 23.5385 18.761 23.6329 18.761 23.729C18.761 23.8251 18.7358 23.9195 18.688 24.0029C18.6401 24.0862 18.5713 24.1556 18.4883 24.204L16.2383 25.604L14.1383 26.954C14.0485 27.0059 13.9468 27.0337 13.8431 27.0345C13.7394 27.0354 13.6372 27.0094 13.5466 26.9591C13.4559 26.9087 13.3799 26.8357 13.3258 26.7472C13.2718 26.6587 13.2416 26.5576 13.2383 26.454V23.754Z" fill="#B3B2B2" stroke="#B3B2B2" stroke-width="2" stroke-miterlimit="10"/>
</svg>
