<svg width="309" height="84" viewBox="0 0 309 84" fill="none" xmlns="http://www.w3.org/2000/svg">
<path d="M48.0709 20.9803C48.007 23.4244 47.4548 25.8317 46.4464 28.0611C45.4382 30.2907 43.9938 32.2979 42.198 33.9661C39.2545 36.6852 35.0674 38.8219 32.5755 38.8311C32.3544 38.8311 30.9771 38.8311 29.07 38.8953C28.5036 38.9183 27.5685 38.9503 26.5091 39.0329C24.8087 39.1398 23.1164 39.3509 21.4423 39.6656C16.8038 40.6044 12.3708 42.3589 8.35122 44.8471C6.51458 45.8816 4.78768 47.0984 3.19685 48.4787C2.01317 49.5502 0.946277 50.7428 0.013916 52.037C0.013916 51.6335 0.013916 45.5305 0.013916 42.4077L0.15672 38.5101V36.0707C0.0369416 32.4574 0.0507794 28.8397 0.0507794 23.3417C0.0507794 22.3009 0.0507794 20.6363 0.0507794 18.5593C1.08322 13.5211 3.8816 9.01258 7.94588 5.83929C9.64558 4.48661 15.4449 -0.112529 24.1966 0.00210539C30.9353 0.0878185 37.3852 2.73942 42.2211 7.41208C42.5895 7.77891 42.8888 8.09989 43.0638 8.29706C46.1962 11.7967 47.9717 16.294 48.0709 20.9803Z" fill="#36A32C"/>
<path d="M38.043 53.1236C35.7248 52.2515 33.298 51.6977 30.8295 51.4776C33.5651 51.9932 36.2057 52.921 38.6603 54.2288C40.315 55.1548 41.8816 56.2292 43.3403 57.4386C45.2143 58.837 46.9372 60.426 48.4808 62.1799C49.6739 63.5655 50.7277 65.0646 51.6269 66.6552C52.847 68.8195 53.7499 71.1464 54.3077 73.5655C53.2252 73.9231 46.3618 76.1194 40.5902 74.7713C39.254 74.4506 37.9521 74.0021 36.7026 73.4324C35.0336 72.6775 33.5139 71.6307 32.2162 70.3418C31.4284 69.6357 31.4193 69.5256 29.4525 67.3797C27.3381 65.087 26.2787 63.9087 24.9383 62.689C23.0451 60.9602 22.1008 60.0981 20.7096 59.4103C18.5001 58.2888 16.0263 57.7848 13.5516 57.9521C11.0408 58.1237 8.62904 58.9943 6.59156 60.4649C5.07808 61.614 3.88944 63.1336 3.14146 64.8761C2.33505 66.6136 1.97267 68.5229 2.08664 70.4336C2.08664 70.4978 2.08664 70.5619 2.08664 70.6214C0.733915 68.2865 0.014799 65.641 0 62.9457C0 51.4364 13.3582 42.1051 29.8117 42.1051C46.2652 42.1051 59.6186 51.4364 59.6186 62.9457C59.57 66.6123 58.2708 70.1533 55.9338 72.9875C55.3 70.5186 54.3168 68.1516 53.0133 65.9582C52.0746 64.3938 50.9955 62.9173 49.7888 61.5471C48.0983 59.5682 46.1532 57.82 44.0036 56.3473C42.1662 55.0188 40.1625 53.9351 38.043 53.1236Z" fill="#B0D606"/>
<path d="M49.4251 78.6277C44.1831 81.8375 37.3152 83.7862 29.7979 83.7862C20.0649 83.7862 11.4189 80.5261 5.97895 75.4822C5.8663 74.8572 5.7894 74.2264 5.74865 73.593C5.67642 72.5627 5.7011 71.528 5.82235 70.5024C5.90066 69.8605 6.00199 69.3194 6.08951 68.9204C6.34284 69.2689 6.68832 69.7229 7.12592 70.2365C7.80884 71.0379 8.55264 71.7859 9.35073 72.4742C10.3405 73.3584 11.3918 74.1721 12.4968 74.9089C13.96 75.9114 15.5293 76.7509 17.1767 77.4125C19.8427 78.4374 22.6794 78.9507 25.537 78.9257C22.7373 78.7109 20.0037 77.9704 17.4807 76.743C16.0558 76.0036 14.6966 75.1444 13.4181 74.1752C12.3713 73.41 11.3715 72.5833 10.424 71.6991C9.66028 71.0006 8.94325 70.253 8.27747 69.4614C7.69076 68.7519 7.15218 68.0044 6.66529 67.2238C6.98508 65.8271 7.80352 64.5936 8.96842 63.7528C10.4276 62.7274 12.1864 62.2116 13.9707 62.2854C15.3965 62.3311 16.791 62.7147 18.038 63.4043C18.8857 63.8628 19.3418 64.2341 21.1843 65.9721C24.0584 68.6819 25.7076 70.319 25.7076 70.319C28.6417 73.217 28.5312 73.1481 28.9318 73.4782C30.627 74.8588 32.5037 76.0018 34.5101 76.8761C35.9933 77.5156 37.5363 78.0086 39.1163 78.3479C41.2398 78.7836 45.4822 79.6868 49.4251 78.6277Z" fill="#B0D606"/>
<g opacity="0.99">
<path d="M72.1615 48.9006V6.51797H87.6569C92.4076 6.51797 96.0588 7.38613 98.6106 9.12247C99.8337 9.90952 100.83 10.9997 101.502 12.286C102.174 13.5722 102.498 15.0103 102.443 16.4591C102.468 18.6818 101.633 20.8291 100.112 22.4568C98.517 24.1959 96.45 25.4382 94.1609 26.0334V26.1526C97.1889 26.5286 99.607 27.6412 101.416 29.4908C102.302 30.3795 102.999 31.4368 103.466 32.5995C103.933 33.7624 104.16 35.0067 104.133 36.2588C104.133 40.141 102.738 43.2208 99.9463 45.4982C97.1551 47.7757 93.3456 48.9129 88.5182 48.9098L72.1615 48.9006ZM81.7471 13.5519V23.6032H85.9664C87.941 23.6032 89.4994 23.1247 90.6417 22.1678C91.2091 21.6833 91.6575 21.0763 91.9531 20.3927C92.2484 19.7094 92.383 18.9677 92.3461 18.2245C92.3461 15.1125 90.0106 13.555 85.34 13.5519H81.7471ZM81.7471 30.6966V41.8666H86.9429C89.1632 41.8666 90.9013 41.3546 92.1572 40.3306C92.7764 39.8245 93.2689 39.1818 93.5959 38.4538C93.923 37.7257 94.0752 36.9319 94.0413 36.1349C94.0757 35.3719 93.9264 34.6119 93.606 33.9178C93.2854 33.224 92.803 32.6162 92.1988 32.1456C90.9704 31.1767 89.243 30.6935 87.0166 30.6966H81.7471Z" fill="#36A32C"/>
<path d="M117.994 48.9006H110.218V14.5469H117.994V48.9006Z" fill="#36A32C"/>
<path d="M140.421 49.5014C135.477 49.5014 131.45 47.8994 128.339 44.6959C125.229 41.4922 123.679 37.3195 123.692 32.1778C123.692 26.7487 125.271 22.3573 128.431 19.0039C131.591 15.6505 135.778 13.9692 140.993 13.96C145.906 13.96 149.889 15.5649 152.941 18.7746C155.994 21.9844 157.514 26.2168 157.501 31.4717C157.501 36.867 155.926 41.2186 152.775 44.5261C149.625 47.8337 145.507 49.4922 140.421 49.5014ZM140.758 20.6135C139.508 20.569 138.266 20.8229 137.135 21.3543C136.005 21.8855 135.018 22.6787 134.258 23.6674C132.655 25.7033 131.854 28.3979 131.854 31.7513C131.854 35.1536 132.655 37.8454 134.258 39.8262C135 40.7822 135.957 41.5508 137.053 42.0695C138.148 42.5882 139.351 42.8423 140.564 42.8112C143.245 42.8112 145.372 41.8483 146.944 39.9224C148.516 37.9966 149.302 35.3263 149.302 31.9119C149.302 28.3505 148.535 25.5794 146.999 23.5985C146.277 22.6389 145.332 21.8679 144.245 21.3512C143.158 20.8347 141.961 20.5878 140.758 20.6318V20.6135Z" fill="#36A32C"/>
<path d="M192.163 48.9006H183.236L177.87 40.06C177.465 39.3905 177.082 38.79 176.714 38.2625C176.383 37.7718 176.008 37.3112 175.595 36.8869C175.252 36.5371 174.853 36.2458 174.415 36.0249C173.999 35.8235 173.542 35.7215 173.079 35.7269H170.984V48.8778H163.213V14.5469H175.535C183.909 14.5469 188.096 17.662 188.096 23.8919C188.107 25.0206 187.92 26.1426 187.543 27.2073C187.184 28.2073 186.654 29.1381 185.977 29.9585C185.285 30.7901 184.46 31.5028 183.536 32.0678C182.542 32.671 181.469 33.1341 180.348 33.4434V33.5396C180.886 33.7147 181.39 33.9782 181.841 34.3191C182.336 34.698 182.798 35.1185 183.222 35.5755C183.678 36.0671 184.107 36.5832 184.507 37.1209C184.917 37.6711 185.291 38.2122 185.627 38.7394L192.163 48.9006ZM170.984 20.3429V29.9035H174.36C175.838 29.9726 177.283 29.4548 178.377 28.4637C178.876 28.004 179.271 27.4444 179.537 26.8217C179.803 26.1987 179.934 25.527 179.92 24.8504C179.92 21.8484 178.114 20.346 174.503 20.3429H170.984Z" fill="#36A32C"/>
<path d="M216.084 48.9006H195.388V14.5469H215.29V20.8472H203.163V28.4912H214.434V34.7685H203.149V42.6233H216.07L216.084 48.9006Z" fill="#36A32C"/>
<path d="M229.392 48.9006H221.621V14.5469H229.392V48.9006Z" fill="#36A32C"/>
<path d="M268.281 48.9006H260.452L246.218 27.3173C245.588 26.3989 245.009 25.4485 244.481 24.4697H244.374C244.504 25.6925 244.569 27.545 244.569 30.0272V48.9053H237.241V14.5469H245.615L259.309 35.4746C259.931 36.4192 260.51 37.3501 261.04 38.2764H261.138C260.975 36.7044 260.915 35.1237 260.957 33.5443V14.5469H268.281V48.9006Z" fill="#36A32C"/>
<path d="M290.761 49.5014C285.816 49.5014 281.788 47.8994 278.678 44.6959C275.567 41.4922 274.013 37.3195 274.013 32.1778C274.013 26.7487 275.591 22.3573 278.752 19.0039C281.911 15.6505 286.098 13.9692 291.313 13.96C296.243 13.96 300.224 15.5649 303.262 18.7746C306.298 21.9844 307.818 26.2168 307.823 31.4717C307.823 36.867 306.247 41.2186 303.097 44.5261C299.945 47.8337 295.834 49.4922 290.761 49.5014ZM291.097 20.6135C289.847 20.5697 288.606 20.824 287.477 21.3552C286.346 21.8867 285.36 22.6794 284.602 23.6674C282.995 25.7308 282.193 28.4315 282.193 31.7696C282.193 35.172 282.995 37.8637 284.602 39.8446C285.342 40.7968 286.299 41.5618 287.395 42.0771C288.488 42.5925 289.688 42.8441 290.898 42.8112C293.58 42.8112 295.706 41.8483 297.278 39.9224C298.851 37.9966 299.641 35.3279 299.65 31.9163C299.65 28.355 298.883 25.5841 297.347 23.6032C296.625 22.6414 295.679 21.8688 294.591 21.3512C293.5 20.8336 292.301 20.5867 291.097 20.6318V20.6135Z" fill="#36A32C"/>
</g>
<path d="M83.1568 76.743C81.8955 77.4174 80.4793 77.7525 79.0479 77.7151C76.8985 77.7151 75.1664 77.0656 73.8521 75.7665C73.1931 75.1053 72.6776 74.3164 72.3378 73.4487C71.9978 72.5811 71.8406 71.653 71.876 70.7225C71.876 68.4207 72.5839 66.5682 73.9995 65.1651C75.4152 63.7619 77.3098 63.0634 79.6837 63.0694C80.8803 63.0466 82.0683 63.2748 83.1706 63.7389V66.6919C82.2431 65.9891 81.1117 65.6046 79.9461 65.5961C79.3146 65.5764 78.6857 65.6887 78.1003 65.9256C77.5148 66.1627 76.9857 66.5188 76.5468 66.9717C76.0986 67.4477 75.7503 68.008 75.5225 68.62C75.2947 69.2317 75.1919 69.8826 75.2203 70.5344C75.1858 71.1603 75.2786 71.7868 75.493 72.3762C75.7076 72.9654 76.0394 73.5055 76.4686 73.9643C76.911 74.3913 77.437 74.7232 78.014 74.9395C78.5907 75.1556 79.2062 75.2513 79.8218 75.2207C81.042 75.2037 82.2194 74.7697 83.1568 73.9918V76.743Z" fill="#B0D606"/>
<path d="M98.9975 77.3942H95.7225V75.1795H95.6673C95.2499 75.9803 94.6108 76.6453 93.8252 77.0955C93.0399 77.5458 92.1414 77.7623 91.2361 77.7198C87.8182 77.7198 86.1094 75.7327 86.1094 71.7588V63.3904H89.3844V71.4332C89.3844 73.9459 90.387 75.2023 92.3922 75.2023C92.8427 75.2146 93.2903 75.1283 93.7034 74.9491C94.1167 74.7702 94.4851 74.5027 94.7829 74.166C95.4249 73.4087 95.7542 72.4368 95.7042 71.447V63.3904H98.9792L98.9975 77.3942Z" fill="#B0D606"/>
<path d="M111.646 66.4123C111.142 66.0792 110.542 65.9182 109.937 65.9537C109.46 65.9529 108.989 66.0683 108.566 66.2895C108.143 66.5109 107.78 66.8317 107.51 67.2238C106.81 68.2391 106.466 69.4561 106.533 70.6859V77.385H103.258V63.3904H106.533V66.2747H106.593C106.855 65.3858 107.366 64.5904 108.067 63.982C108.683 63.4495 109.472 63.1564 110.287 63.1567C110.762 63.1278 111.237 63.2159 111.669 63.4135L111.646 66.4123Z" fill="#B0D606"/>
<path d="M113.24 76.954V74.0148C114.403 74.8975 115.826 75.3728 117.289 75.3674C119.263 75.3674 120.252 74.8035 120.255 73.6755C120.265 73.383 120.175 73.0955 120.002 72.8593C119.812 72.6195 119.58 72.4173 119.315 72.2632C118.993 72.0783 118.654 71.9246 118.302 71.8047L116.994 71.3462C116.445 71.1368 115.91 70.8948 115.391 70.6217C114.953 70.3937 114.554 70.0998 114.207 69.7504C113.896 69.4364 113.653 69.0617 113.493 68.65C113.324 68.1905 113.243 67.7038 113.254 67.2146C113.242 66.5852 113.413 65.9658 113.747 65.431C114.087 64.9065 114.54 64.4636 115.073 64.1332C115.658 63.7702 116.297 63.5025 116.966 63.3401C117.681 63.1605 118.416 63.0712 119.154 63.0741C120.374 63.0551 121.588 63.254 122.738 63.6611V66.4351C121.7 65.7549 120.479 65.4033 119.237 65.4263C118.861 65.423 118.485 65.463 118.118 65.5455C117.816 65.6142 117.527 65.7303 117.261 65.8896C117.04 66.0211 116.853 66.2016 116.713 66.4168C116.581 66.6169 116.512 66.8516 116.515 67.0909C116.504 67.3598 116.573 67.6262 116.713 67.8566C116.862 68.0845 117.062 68.2744 117.298 68.4115C117.589 68.5945 117.897 68.7481 118.219 68.87C118.583 68.9984 118.998 69.1452 119.467 69.2964C120.089 69.544 120.647 69.7963 121.144 70.0484C121.602 70.2808 122.027 70.574 122.406 70.9196C122.748 71.2348 123.022 71.6152 123.212 72.0384C123.408 72.5187 123.504 73.0336 123.493 73.5516C123.509 74.207 123.331 74.8527 122.982 75.4088C122.64 75.9454 122.176 76.3945 121.628 76.7202C121.024 77.0839 120.364 77.3458 119.675 77.495C118.908 77.6666 118.125 77.7514 117.339 77.7473C115.932 77.7702 114.536 77.5 113.24 76.954Z" fill="#B0D606"/>
<path d="M133.015 77.7196C130.785 77.7196 129.004 77.0656 127.671 75.7571C126.339 74.4488 125.674 72.7155 125.677 70.5572C125.677 68.2066 126.371 66.3725 127.759 65.0548C129.147 63.7373 131.016 63.0739 133.365 63.0647C135.622 63.0647 137.381 63.7067 138.643 64.9906C139.906 66.2745 140.535 68.0568 140.532 70.3371C140.532 72.5719 139.853 74.3602 138.496 75.702C137.137 77.0501 135.313 77.7196 133.015 77.7196ZM133.171 65.5914C132.599 65.5654 132.029 65.6692 131.503 65.8949C130.977 66.1204 130.51 66.4619 130.136 66.8936C129.393 67.7588 129.021 68.9524 129.021 70.4747C128.95 71.73 129.353 72.9662 130.15 73.9413C130.528 74.3609 130.996 74.6915 131.518 74.9095C132.041 75.1276 132.605 75.2276 133.171 75.2023C133.729 75.2361 134.287 75.1417 134.803 74.9263C135.318 74.7107 135.776 74.3801 136.142 73.9596C136.833 73.1282 137.179 71.9483 137.179 70.4197C137.179 68.8913 136.829 67.7022 136.128 66.8523C135.766 66.4297 135.311 66.0962 134.798 65.8775C134.285 65.6587 133.728 65.5607 133.171 65.5914Z" fill="#B0D606"/>
<path d="M142.964 76.954V74.0148C144.129 74.8975 145.554 75.3728 147.018 75.3674C148.996 75.3674 149.984 74.8035 149.984 73.6755C149.992 73.3823 149.902 73.0949 149.726 72.8593C149.539 72.6195 149.308 72.4173 149.045 72.2632C148.721 72.0783 148.38 71.9248 148.027 71.8047L146.723 71.3461C146.175 71.1368 145.639 70.8948 145.12 70.6217C144.682 70.3924 144.282 70.0987 143.932 69.7504C143.622 69.436 143.38 69.0613 143.222 68.6499C143.053 68.1905 142.972 67.7038 142.983 67.2146C142.968 66.5847 143.139 65.9645 143.476 65.431C143.814 64.9045 144.268 64.4609 144.802 64.1332C145.385 63.7695 146.023 63.5016 146.691 63.3401C147.406 63.1611 148.141 63.0717 148.879 63.0741C150.1 63.0556 151.316 63.2544 152.467 63.6611V66.4351C151.429 65.7556 150.209 65.4039 148.966 65.4263C148.588 65.4232 148.211 65.4632 147.842 65.5455C147.542 65.6151 147.254 65.7312 146.99 65.8895C146.769 66.0222 146.58 66.2025 146.437 66.4168C146.308 66.6178 146.239 66.8518 146.239 67.0909C146.232 67.3596 146.3 67.6251 146.437 67.8566C146.588 68.0834 146.788 68.2731 147.022 68.4115C147.314 68.5943 147.622 68.7477 147.944 68.87C148.303 68.9984 148.722 69.1452 149.192 69.2964C149.814 69.544 150.371 69.7963 150.864 70.0484C151.323 70.2797 151.748 70.5729 152.126 70.9196C152.469 71.2334 152.744 71.6143 152.932 72.0384C153.131 72.518 153.226 73.0333 153.213 73.5516C153.224 74.1922 153.049 74.8223 152.711 75.3674C152.367 75.9025 151.904 76.3514 151.357 76.6788C150.751 77.0423 150.09 77.304 149.399 77.4539C148.633 77.6259 147.849 77.7104 147.064 77.706C145.66 77.7409 144.264 77.4847 142.964 76.954Z" fill="#B0D606"/>
<path d="M177.423 77.3942H174.148V75.0145H174.088C173.614 75.8752 172.906 76.5858 172.045 77.0642C171.184 77.5427 170.205 77.7699 169.22 77.7198C168.411 77.7498 167.606 77.5961 166.867 77.2705C166.127 76.9448 165.471 76.4554 164.95 75.8398C163.881 74.5895 163.347 72.8821 163.347 70.7178C163.347 68.4068 163.938 66.5527 165.12 65.1559C165.694 64.4714 166.418 63.927 167.237 63.5646C168.055 63.2023 168.946 63.0312 169.841 63.0649C171.792 63.0649 173.207 63.829 174.088 65.3576H174.148V56.6638H177.423V77.3942ZM174.199 70.9746V69.1405C174.209 68.6734 174.125 68.2091 173.952 67.7745C173.78 67.3399 173.522 66.9437 173.195 66.6093C172.867 66.2676 172.47 65.9983 172.03 65.8189C171.59 65.6397 171.118 65.5543 170.643 65.5686C170.09 65.5453 169.539 65.654 169.037 65.8853C168.535 66.1166 168.095 66.4637 167.755 66.8983C167.055 67.7787 166.705 69.0076 166.705 70.5666C166.638 71.7725 166.994 72.964 167.713 73.9368C168.038 74.3396 168.453 74.661 168.925 74.8753C169.397 75.0896 169.913 75.1905 170.431 75.1704C170.946 75.1878 171.458 75.0898 171.929 74.8834C172.4 74.6771 172.819 74.3676 173.153 73.9782C173.854 73.1429 174.223 72.0807 174.19 70.993L174.199 70.9746Z" fill="#B0D606"/>
<path d="M193.937 71.2406H184.084C184.069 71.7978 184.17 72.3522 184.383 72.868C184.595 73.3836 184.914 73.8493 185.319 74.2349C186.224 74.974 187.374 75.3486 188.543 75.2849C190.066 75.292 191.553 74.8239 192.795 73.9459V76.5046C191.477 77.3085 189.736 77.7091 187.571 77.706C185.406 77.7028 183.743 77.0763 182.583 75.826C181.373 74.5543 180.768 72.7661 180.768 70.4611C180.728 69.4863 180.884 68.5133 181.226 67.5993C181.569 66.6852 182.091 65.8482 182.762 65.1375C183.397 64.4663 184.166 63.9351 185.02 63.5781C185.873 63.2211 186.793 63.0464 187.719 63.065C189.696 63.065 191.232 63.6763 192.325 64.8991C193.418 66.1217 193.96 67.8306 193.951 70.0256L193.937 71.2406ZM190.777 68.9984C190.824 68.0415 190.529 67.099 189.943 66.3389C189.662 66.0213 189.313 65.7712 188.922 65.6068C188.53 65.4424 188.106 65.3682 187.682 65.3896C187.236 65.3818 186.793 65.4664 186.382 65.6377C185.97 65.8088 185.599 66.0633 185.291 66.3848C184.613 67.1014 184.189 68.0194 184.084 68.9984H190.777Z" fill="#B0D606"/>
<path d="M208.336 75.3674H208.276V77.3942H205.001V56.6638H208.276V65.8345H208.336C208.815 64.9626 209.528 64.2404 210.395 63.7483C211.262 63.256 212.249 63.0131 213.247 63.0466C214.058 63.0068 214.868 63.1562 215.613 63.4826C216.355 63.8089 217.012 64.3032 217.531 64.9266C218.561 66.1767 219.076 67.8581 219.073 69.9705C219.073 72.3091 218.497 74.1828 217.341 75.5922C216.771 76.2876 216.044 76.8408 215.221 77.2078C214.397 77.5749 213.499 77.7453 212.597 77.706C211.74 77.7431 210.889 77.5445 210.137 77.132C209.385 76.7193 208.762 76.1089 208.336 75.3674ZM208.249 69.8055V71.5387C208.228 72.5037 208.591 73.4377 209.258 74.1385C209.62 74.5002 210.055 74.7812 210.534 74.9635C211.013 75.1458 211.526 75.2249 212.038 75.1959C212.55 75.167 213.05 75.0303 213.505 74.7952C213.96 74.5599 214.361 74.2314 214.678 73.8314C215.369 72.9143 215.716 71.6365 215.716 69.998C215.785 68.8394 215.443 67.6935 214.748 66.7608C214.432 66.3781 214.032 66.0734 213.578 65.8705C213.124 65.6677 212.629 65.5721 212.132 65.5914C211.602 65.5719 211.075 65.6699 210.588 65.8786C210.101 66.087 209.667 66.4009 209.318 66.7974C208.593 67.63 208.211 68.7043 208.249 69.8055Z" fill="#B0D606"/>
<path d="M224.071 60.4513C223.562 60.4665 223.068 60.2858 222.69 59.9469C222.504 59.7883 222.357 59.591 222.256 59.3691C222.158 59.1472 222.109 58.9059 222.113 58.663C222.109 58.4172 222.158 58.1736 222.256 57.9486C222.357 57.7238 222.504 57.5231 222.69 57.3607C223.065 57.0158 223.559 56.83 224.071 56.8425C224.592 56.8297 225.097 57.0152 225.484 57.3607C225.67 57.5231 225.817 57.7238 225.918 57.9486C226.016 58.1736 226.065 58.4172 226.061 58.663C226.061 58.9025 226.012 59.1399 225.911 59.3582C225.813 59.5765 225.668 59.7711 225.484 59.9286C225.097 60.277 224.592 60.464 224.071 60.4513ZM225.697 77.3942H222.422V63.3904H225.697V77.3942Z" fill="#B0D606"/>
<path d="M236.378 77.7198C234.149 77.7198 232.37 77.0656 231.04 75.7573C229.709 74.4488 229.043 72.7155 229.041 70.5575C229.041 68.2066 229.734 66.3725 231.122 65.055C232.511 63.7373 234.382 63.077 236.733 63.0741C238.991 63.0741 240.751 63.7161 242.011 65C243.274 66.2839 243.909 68.0583 243.914 70.3235C243.914 72.558 243.234 74.3463 241.875 75.6884C240.514 77.0305 238.683 77.7075 236.378 77.7198ZM236.534 65.5914C235.964 65.5659 235.392 65.6699 234.867 65.8954C234.341 66.1211 233.874 66.4622 233.501 66.8936C232.756 67.7588 232.385 68.9526 232.385 70.4749C232.314 71.73 232.716 72.9662 233.514 73.9415C233.892 74.3604 234.359 74.6906 234.882 74.9087C235.405 75.1267 235.969 75.227 236.534 75.2023C237.093 75.2363 237.652 75.1417 238.166 74.9263C238.683 74.7107 239.141 74.3801 239.505 73.9598C240.198 73.1282 240.543 71.9483 240.543 70.4199C240.543 68.8913 240.198 67.7022 239.505 66.8525C239.143 66.4293 238.687 66.0951 238.173 65.8764C237.661 65.6576 237.102 65.5601 236.546 65.5914H236.534Z" fill="#B0D606"/>
<path d="M250.525 77.3942H247.236V56.6638H250.525V77.3942Z" fill="#B0D606"/>
<path d="M261.197 77.7198C258.961 77.7198 257.182 77.0656 255.854 75.7573C254.528 74.4488 253.862 72.7155 253.855 70.5575C253.855 68.2066 254.548 66.3725 255.937 65.055C257.325 63.7373 259.196 63.077 261.548 63.0741C263.81 63.0741 265.565 63.7161 266.826 65C268.089 66.2839 268.719 68.0675 268.719 70.3465C268.719 72.6254 268.037 74.3678 266.678 75.7114C265.319 77.0548 263.49 77.7198 261.197 77.7198ZM261.349 65.5914C260.777 65.5659 260.207 65.6699 259.681 65.8954C259.156 66.1211 258.689 66.4622 258.313 66.8936C257.573 67.7588 257.202 68.9526 257.2 70.4749C257.13 71.7307 257.533 72.9669 258.333 73.9415C258.711 74.3602 259.178 74.6906 259.699 74.9087C260.22 75.1265 260.783 75.227 261.349 75.2023C261.908 75.2363 262.467 75.1417 262.981 74.9263C263.497 74.7107 263.955 74.3801 264.32 73.9598C265.015 73.1282 265.362 71.9483 265.362 70.4199C265.362 68.8913 265.015 67.7022 264.32 66.8525C263.958 66.4279 263.499 66.0931 262.983 65.8743C262.469 65.6556 261.91 65.5587 261.349 65.5914Z" fill="#B0D606"/>
<path d="M285.206 76.2845C285.206 81.4262 282.539 83.9971 277.205 83.9971C275.515 84.0338 273.836 83.7215 272.276 83.08V80.1821C273.64 80.996 275.191 81.4476 276.78 81.4935C280.21 81.4935 281.927 79.858 281.931 76.5871V75.0556H281.875C281.401 75.8029 280.76 76.4312 280.004 76.892C279.246 77.3525 278.392 77.633 277.507 77.7116C276.624 77.7901 275.732 77.6646 274.905 77.3447C274.078 77.0249 273.335 76.5191 272.736 75.8673C271.659 74.6262 271.12 72.9555 271.12 70.8554C271.12 68.4802 271.699 66.5894 272.855 65.1834C273.432 64.4878 274.165 63.9357 274.992 63.5702C275.821 63.205 276.722 63.0368 277.628 63.0786C278.479 63.0319 279.327 63.2213 280.078 63.6262C280.827 64.031 281.45 64.6352 281.875 65.3713H281.931V63.4271H285.206V76.2845ZM281.98 70.993V69.1588C281.982 68.6945 281.893 68.2341 281.716 67.8047C281.54 67.375 281.278 66.9844 280.95 66.6552C280.625 66.3145 280.234 66.0455 279.801 65.8654C279.367 65.6851 278.9 65.5981 278.43 65.6097C277.871 65.5853 277.317 65.6938 276.809 65.9258C276.302 66.158 275.857 66.5069 275.513 66.9442C274.813 67.8337 274.464 69.0763 274.464 70.672C274.402 71.8559 274.76 73.0237 275.473 73.9735C275.79 74.3738 276.197 74.6946 276.662 74.9095C277.127 75.1247 277.637 75.2281 278.149 75.2115C278.669 75.2305 279.186 75.1343 279.664 74.9297C280.143 74.725 280.567 74.4172 280.912 74.0285C281.638 73.1821 282.014 72.0912 281.958 70.9793L281.98 70.993Z" fill="#B0D606"/>
<path d="M291.119 60.4513C290.611 60.464 290.117 60.2837 289.737 59.9469C289.554 59.7876 289.406 59.5899 289.308 59.3682C289.21 59.1464 289.16 58.9055 289.167 58.663C289.163 58.4176 289.21 58.1743 289.308 57.9495C289.409 57.7249 289.554 57.5238 289.737 57.3607C290.115 57.0178 290.609 56.8324 291.119 56.8425C291.64 56.8291 292.143 57.0145 292.529 57.3607C292.715 57.522 292.865 57.7224 292.965 57.9474C293.066 58.1725 293.115 58.4167 293.108 58.663C293.111 58.903 293.059 59.1405 292.959 59.3591C292.858 59.5776 292.713 59.772 292.529 59.9285C292.145 60.2779 291.64 60.4654 291.119 60.4513ZM292.742 77.3942H289.471V63.3904H292.742V77.3942Z" fill="#B0D606"/>
<path d="M308.117 77.3942H304.938V75.2024H304.882C304.46 75.9875 303.823 76.639 303.049 77.0839C302.274 77.5286 301.388 77.7489 300.492 77.7198C299.276 77.7916 298.08 77.3906 297.154 76.601C296.752 76.221 296.434 75.7595 296.227 75.2478C296.019 74.736 295.923 74.1857 295.947 73.6342C295.947 70.9869 297.519 69.4462 300.664 69.0121L304.952 68.4252C304.952 66.4259 303.975 65.4279 302.017 65.431C300.304 65.423 298.643 66.0338 297.347 67.1504V64.3625C298.958 63.4649 300.78 63.0122 302.625 63.0511C306.273 63.0511 308.099 64.792 308.102 68.274L308.117 77.3942ZM304.952 70.5161L301.916 70.9243C301.167 70.98 300.44 71.2077 299.792 71.5891C299.54 71.7897 299.341 72.051 299.215 72.3485C299.092 72.6457 299.043 72.9698 299.079 73.2904C299.07 73.567 299.126 73.842 299.24 74.0945C299.354 74.347 299.524 74.5707 299.739 74.7485C300.233 75.1442 300.859 75.3448 301.493 75.3124C301.954 75.3258 302.414 75.2419 302.841 75.0666C303.268 74.8912 303.653 74.6282 303.97 74.2944C304.297 73.9531 304.552 73.5509 304.719 73.111C304.889 72.6708 304.967 72.202 304.952 71.7313V70.5161Z" fill="#B0D606"/>
</svg>
