<svg width="100" height="62" viewBox="0 0 100 62" fill="none" xmlns="http://www.w3.org/2000/svg">
<path d="M3.69641 57.5383L2.59514 60.3667C2.35892 60.9789 1.94303 61.2851 1.34748 61.2851C1.11791 61.2851 0.88501 61.2285 0.645458 61.1121C0.216262 60.8991 0 60.5863 0 60.1737C0 59.9807 0.0465795 59.7711 0.136411 59.5448L4.51155 48.6438C4.90082 47.6722 5.52299 47.1864 6.38471 47.1864C7.24643 47.1864 7.88191 47.6722 8.27784 48.6438L12.653 59.5448C12.7362 59.7644 12.7794 59.9774 12.7794 60.1903C12.7794 60.5863 12.5731 60.8858 12.1606 61.0921C11.9177 61.2185 11.6715 61.2818 11.4253 61.2818C10.843 61.2818 10.4338 60.9756 10.1976 60.3634L9.0963 57.535H3.69641V57.5383ZM6.39802 49.7686L4.46165 55.3554H8.31776L6.39802 49.7686Z" fill="#1D1D1B"/>
<path d="M17.0338 55.9008V60.2765C17.0338 60.5361 16.9473 60.7557 16.7776 60.932C16.548 61.1683 16.2386 61.2881 15.8493 61.2881C15.3869 61.2881 15.0508 61.1317 14.8379 60.8156C14.7348 60.6625 14.6849 60.4862 14.6849 60.2798V52.1907C14.6849 51.9477 14.7614 51.7414 14.9111 51.5717C15.1307 51.3421 15.4235 51.2257 15.7928 51.2257C16.2586 51.2257 16.588 51.402 16.7743 51.7548C16.8475 51.8812 16.8841 52.0276 16.8841 52.1907V53.1457C17.1935 52.6133 17.5029 52.2006 17.8123 51.9078C18.3813 51.3854 19.0633 51.1259 19.8585 51.1259C20.484 51.1259 21.0197 51.3222 21.4688 51.7182C21.7916 52.0043 21.9513 52.3271 21.9513 52.6931C21.9513 52.9527 21.8648 53.1956 21.6884 53.4218C21.4455 53.7313 21.1328 53.8844 20.7502 53.8844C20.5006 53.8844 20.291 53.8178 20.1213 53.6847C19.8984 53.5084 19.6356 53.4218 19.3395 53.4218C18.4345 53.4218 17.6659 54.2504 17.0271 55.9042L17.0338 55.9008Z" fill="#1D1D1B"/>
<path d="M30.3051 52.5235L30.3583 51.9312C30.4016 51.4321 30.7243 51.1859 31.3332 51.1859C31.8189 51.1859 32.1516 51.3722 32.3346 51.7415C32.3945 51.868 32.4244 52.0111 32.4244 52.1708V60.2966C32.4244 60.5029 32.3779 60.6859 32.288 60.8423C32.105 61.1385 31.8023 61.2882 31.3797 61.2882C30.7908 61.2882 30.4515 60.9821 30.3616 60.3698L30.2618 59.7409C29.6629 60.8223 28.6349 61.3614 27.1776 61.3614C25.6238 61.3614 24.4294 60.7358 23.5943 59.488C22.9988 58.6029 22.7026 57.5281 22.7026 56.267C22.7026 55.0724 23.0054 54.0309 23.6109 53.1458C24.1067 52.4104 24.7521 51.878 25.5407 51.5452C26.0863 51.309 26.6586 51.1892 27.2608 51.1892C28.6083 51.1892 29.623 51.6351 30.3084 52.5268L30.3051 52.5235ZM30.1154 56.4167V55.688C30.1154 55.0158 29.8659 54.4269 29.3702 53.9244C28.8678 53.4153 28.2855 53.1591 27.6234 53.1591C26.8582 53.1591 26.2427 53.4785 25.7769 54.1141C25.3643 54.6797 25.158 55.3918 25.158 56.2537C25.158 56.9924 25.3044 57.6279 25.5939 58.1537C26.0431 58.9589 26.7118 59.3649 27.6035 59.3649C28.1558 59.3649 28.6582 59.1553 29.114 58.736C29.7794 58.1237 30.1154 57.3484 30.1154 56.4167Z" fill="#1D1D1B"/>
<path d="M37.8634 55.9008V60.2765C37.8634 60.5361 37.7769 60.7557 37.6072 60.932C37.3776 61.1683 37.0682 61.2881 36.679 61.2881C36.2165 61.2881 35.8804 61.1317 35.6675 60.8156C35.5644 60.6625 35.5145 60.4862 35.5145 60.2798V52.1907C35.5145 51.9477 35.591 51.7414 35.7407 51.5717C35.9603 51.3421 36.2531 51.2257 36.6224 51.2257C37.0882 51.2257 37.4176 51.402 37.6039 51.7548C37.6771 51.8812 37.7137 52.0276 37.7137 52.1907V53.1457C38.0231 52.6133 38.3325 52.2006 38.6419 51.9078C39.2109 51.3854 39.8929 51.1259 40.6881 51.1259C41.3136 51.1259 41.8493 51.3222 42.2984 51.7182C42.6212 52.0043 42.7809 52.3271 42.7809 52.6931C42.7809 52.9527 42.6944 53.1956 42.518 53.4218C42.2751 53.7313 41.9624 53.8844 41.5798 53.8844C41.3302 53.8844 41.1206 53.8178 40.951 53.6847C40.728 53.5084 40.4652 53.4218 40.1691 53.4218C39.2641 53.4218 38.4956 54.2504 37.8567 55.9042L37.8634 55.9008Z" fill="#1D1D1B"/>
<path d="M51.138 52.5235L51.1912 51.9312C51.2345 51.4321 51.5572 51.1859 52.1661 51.1859C52.6518 51.1859 52.9846 51.3722 53.1675 51.7415C53.2274 51.868 53.2574 52.0111 53.2574 52.1708V60.2966C53.2574 60.5029 53.2108 60.6859 53.121 60.8423C52.938 61.1385 52.6352 61.2882 52.2127 61.2882C51.6238 61.2882 51.2844 60.9821 51.1946 60.3698L51.0948 59.7409C50.4959 60.8223 49.4678 61.3614 48.0105 61.3614C46.4568 61.3614 45.2623 60.7358 44.4272 59.488C43.8317 58.6029 43.5356 57.5281 43.5356 56.267C43.5356 55.0724 43.8383 54.0309 44.4439 53.1458C44.9396 52.4104 45.5851 51.878 46.3736 51.5452C46.9192 51.309 47.4915 51.1892 48.0937 51.1892C49.4412 51.1892 50.456 51.6351 51.1413 52.5268L51.138 52.5235ZM50.9484 56.4167V55.688C50.9484 55.0158 50.6988 54.4269 50.2031 53.9244C49.7007 53.4153 49.1185 53.1591 48.4564 53.1591C47.6911 53.1591 47.0756 53.4785 46.6098 54.1141C46.1973 54.6797 45.991 55.3918 45.991 56.2537C45.991 56.9924 46.1374 57.6279 46.4268 58.1537C46.876 58.9589 47.5447 59.3649 48.4364 59.3649C48.9887 59.3649 49.4911 59.1553 49.9469 58.736C50.6123 58.1237 50.9484 57.3484 50.9484 56.4167Z" fill="#1D1D1B"/>
<path d="M58.6431 47.476H61.4711C63.168 47.476 64.6053 47.8454 65.7831 48.5874C66.6747 49.1398 67.3701 49.8918 67.8658 50.8435C68.3882 51.845 68.6477 52.983 68.6477 54.2542C68.6477 55.9712 68.1886 57.422 67.2736 58.6032C65.9993 60.2537 64.0397 61.0789 61.3979 61.0789H58.6398C57.2091 61.0789 56.4938 60.3735 56.4938 58.9593V49.5956C56.4938 48.1814 57.2091 47.476 58.6398 47.476H58.6431ZM59.0523 50.0881V58.4502C59.0523 58.7363 59.2021 58.8794 59.4982 58.8794H61.0453C62.2929 58.8794 63.2711 58.6698 63.9731 58.2505C65.2773 57.4619 65.9295 56.1342 65.9295 54.2641C65.9295 53.196 65.6932 52.2809 65.2208 51.5156C64.6552 50.6072 63.8633 50.0382 62.8386 49.8153C62.3528 49.7121 61.7739 49.6622 61.1018 49.6622H59.5015C59.2054 49.6622 59.0557 49.8053 59.0557 50.0914L59.0523 50.0881Z" fill="#1D1D1B"/>
<path d="M72.7624 56.8393C72.799 57.5746 73.0585 58.1669 73.5443 58.6228C74.0733 59.1219 74.7387 59.3682 75.5472 59.3682C76.4621 59.3682 77.244 59.0354 77.8928 58.3666C78.0691 58.1802 78.2754 58.0838 78.5116 58.0838C78.7778 58.0838 79.024 58.1969 79.2469 58.4198C79.4532 58.6328 79.5563 58.8824 79.5563 59.1752C79.5563 59.5079 79.39 59.834 79.0573 60.1501C78.1889 60.982 76.9878 61.398 75.454 61.398C74.1265 61.398 73.0119 61.0286 72.1136 60.2866C70.9325 59.3216 70.3403 57.9839 70.3403 56.2736C70.3403 55.0058 70.673 53.921 71.3417 53.0159C72.2633 51.7615 73.5576 51.1326 75.2278 51.1326C76.6052 51.1326 77.7397 51.6384 78.6314 52.6532C79.39 53.5084 79.7693 54.4701 79.7693 55.5382C79.7693 56.0107 79.6828 56.3435 79.5064 56.5298C79.3135 56.7361 78.9974 56.8393 78.5615 56.8393H72.7657H72.7624ZM72.799 55.0091H77.0843C77.2706 55.0091 77.3671 54.9326 77.3671 54.7829C77.3671 54.4568 77.2307 54.124 76.9579 53.7913C76.5387 53.2755 75.9531 53.0193 75.2012 53.0193C74.752 53.0193 74.3295 53.1357 73.9369 53.3653C73.3014 53.7347 72.9221 54.2837 72.799 55.0125V55.0091Z" fill="#1D1D1B"/>
<path d="M85.6875 58.1204L88.1063 51.9346C88.2926 51.4554 88.632 51.2158 89.1177 51.2158C89.3473 51.2158 89.5769 51.2757 89.7998 51.3988C90.2423 51.6417 90.4652 51.9712 90.4652 52.3904C90.4652 52.5435 90.4319 52.6932 90.3654 52.8463L87.1448 60.28C86.842 60.9788 86.3596 61.3248 85.6975 61.3248C85.0354 61.3248 84.5363 60.9754 84.2335 60.28L81.0129 52.8463C80.9464 52.6932 80.9131 52.5468 80.9131 52.4004C80.9131 51.9645 81.1327 51.6284 81.5685 51.3988C81.7915 51.2824 82.021 51.2258 82.2506 51.2258C82.743 51.2258 83.0824 51.4621 83.2687 51.9346L85.6875 58.1204Z" fill="#1D1D1B"/>
<path d="M95.8212 51.1326C97.1387 51.1326 98.1934 51.4088 98.9886 51.9611C99.4178 52.2573 99.634 52.61 99.634 53.0159C99.634 53.2522 99.5608 53.4751 99.4144 53.6814C99.2148 53.9543 98.942 54.0907 98.596 54.0907C98.373 54.0907 98.1235 53.9843 97.8507 53.7713C97.2318 53.2921 96.5431 53.0525 95.7846 53.0525C94.8031 53.0525 94.3107 53.3321 94.3107 53.8911C94.3107 54.2172 94.487 54.4734 94.8397 54.6564C94.9561 54.7097 95.1524 54.7829 95.4319 54.876C97.0755 55.3785 98.0902 55.7279 98.4795 55.9209C99.491 56.4233 100 57.2286 100 58.3333C100 59.3582 99.5941 60.1435 98.7823 60.6892C98.0736 61.1617 97.1121 61.398 95.8977 61.398C94.5103 61.398 93.3658 61.0818 92.4674 60.4529C91.8852 60.0403 91.5957 59.6111 91.5957 59.1619C91.5957 58.9489 91.6656 58.7426 91.8053 58.5429C91.9983 58.2701 92.2578 58.1337 92.5772 58.1337C92.8334 58.1337 93.073 58.2401 93.2959 58.4531C93.9746 59.102 94.8363 59.4281 95.881 59.4281C96.9258 59.4281 97.508 59.1352 97.508 58.5563C97.508 58.1636 97.2352 57.8309 96.6895 57.5647C96.3369 57.4016 95.4918 57.1121 94.1509 56.6995C92.6937 56.2569 91.9684 55.3685 91.9684 54.0342C91.9684 52.9893 92.4674 52.2007 93.4689 51.6583C94.1044 51.3123 94.8896 51.1392 95.8245 51.1392L95.8212 51.1326Z" fill="#1D1D1B"/>
<path d="M64.5581 8.77948C64.974 9.03901 65.3865 9.30852 65.7891 9.59134C66.0286 9.76103 66.2648 9.93072 66.4977 10.1104C66.5476 10.147 66.5975 10.1869 66.6441 10.2235C66.4778 10.0971 66.6474 10.2269 66.6873 10.2601C66.8304 10.3733 66.9701 10.4864 67.1099 10.6028C68.2976 11.5811 69.3954 12.6691 70.3769 13.8536C71.3583 15.0381 72.2798 16.4921 73.055 17.9329C73.6871 19.1074 74.2427 20.242 74.6619 21.3633C75.9028 24.6806 76.2288 28.161 75.0079 31.5681C74.765 32.2436 74.4656 32.8924 74.0697 33.5845C73.9 33.8806 73.7204 34.1701 73.5341 34.4529C73.4309 34.6059 73.3245 34.759 73.218 34.9087C73.1648 34.9819 73.1116 35.0551 73.055 35.1283C73.0084 35.1882 73.0117 35.1849 73.0583 35.1283C73.0151 35.1849 72.9685 35.2414 72.9253 35.298C72.4994 35.827 72.0436 36.3261 71.5546 36.7986C71.3284 37.0149 71.0988 37.2278 70.8626 37.4341C70.7428 37.5373 70.6197 37.6404 70.4966 37.7436C70.4467 37.7835 70.4001 37.8234 70.3502 37.8634C70.3236 37.8833 70.0675 38.083 70.1673 38.0098C70.2937 37.9133 70.0542 38.0929 70.0575 38.0929C69.9843 38.1462 69.9111 38.1994 69.8379 38.2526C69.7082 38.3458 69.5751 38.439 69.442 38.5321C69.1792 38.7118 68.9097 38.8882 68.6369 39.0545C68.1811 39.334 67.7154 39.5969 67.2396 39.8398C66.8737 40.0261 66.5044 40.1958 66.1284 40.3622C65.8922 40.4686 66.4012 40.2524 66.1118 40.3688C66.0552 40.3921 65.9987 40.4154 65.9455 40.4354C65.8456 40.4753 65.7458 40.5119 65.646 40.5518L66.867 42.1389C67.7586 40.6749 68.5803 39.171 69.2258 37.5839C69.6283 36.5957 69.941 35.5708 70.0242 34.5028C70.0808 33.7774 69.9677 33.0221 69.625 32.3733C69.0894 31.3518 68.0414 31.0091 67.1099 30.4635C66.338 30.0143 65.6494 29.3887 65.1104 28.6967C64.8675 28.3839 64.6347 28.0146 64.4317 27.6552C64.3386 27.4922 64.2521 27.3258 64.1689 27.1561C64.129 27.0763 64.0924 26.9964 64.0558 26.9166C64.0358 26.8733 63.8961 26.5506 63.9892 26.7702C63.763 26.2311 63.274 25.8452 62.6585 26.0149C62.1495 26.1546 61.6771 26.8034 61.9033 27.3458C62.5287 28.8397 63.3838 30.2272 64.6147 31.3019C65.2302 31.841 65.9022 32.2901 66.6341 32.6561C66.8603 32.7693 67.0932 32.8757 67.3128 33.0055C67.3594 33.0321 67.406 33.0687 67.4525 33.092C67.6754 33.2085 67.3461 32.9889 67.4592 33.092C67.5157 33.1419 67.7985 33.4613 67.6521 33.2717C67.5058 33.082 67.702 33.3615 67.742 33.4281C67.7686 33.4713 67.8551 33.6809 67.7686 33.468C67.6821 33.2551 67.7786 33.5113 67.7952 33.5645C67.8318 33.6809 67.8351 33.814 67.875 33.9272C67.8484 33.8506 67.8584 33.661 67.8651 33.9039C67.8651 33.9904 67.875 34.0769 67.875 34.1634C67.875 34.3264 67.8584 34.4895 67.8484 34.6525C67.8285 34.9021 67.895 34.4129 67.8384 34.7157C67.8185 34.8289 67.7985 34.9453 67.7719 35.0584C67.6654 35.5476 67.5124 36.03 67.3394 36.4992C67.1099 37.1214 66.8637 37.6537 66.5044 38.3691C66.0419 39.2808 65.5329 40.1692 65.0006 41.0442C64.5382 41.8029 65.3167 42.9708 66.2216 42.6314C70.5765 41.011 74.5721 37.8134 76.5316 33.5345C78.1917 29.9078 78.3314 25.8851 77.187 22.0853C76.7379 20.5847 76.1091 19.1373 75.4005 17.7465C74.6918 16.3557 73.8834 14.9316 72.9352 13.6407C70.9591 10.9555 68.4839 8.68299 65.6527 6.92285C64.4683 6.18752 63.3804 8.05746 64.5615 8.78946L64.5581 8.77948Z" fill="#1D1D1B"/>
<path d="M65.9022 31.1822C65.6693 31.4317 65.4265 31.6679 65.1736 31.8942C65.0106 32.0373 64.8443 32.177 64.6746 32.3134C64.811 32.207 64.6114 32.36 64.5681 32.39C64.4517 32.4765 64.3353 32.5563 64.2155 32.6362C63.2141 33.3083 62.2027 33.7542 61.0317 34.0237C60.4262 34.1634 59.8406 34.2266 59.2152 34.2333C58.9091 34.2366 58.603 34.2266 58.297 34.2033C58.1705 34.1934 58.0441 34.18 57.9177 34.1667C57.7913 34.1534 57.7813 34.1501 57.595 34.1202C57.0693 34.0303 56.5504 33.9006 56.0413 33.7408C55.8118 33.6676 55.5856 33.5878 55.3627 33.5013C55.2728 33.468 55.183 33.4314 55.0932 33.3948C55.2994 33.4813 54.9867 33.3482 54.9335 33.3216C54.3646 33.0621 53.8157 32.7593 53.2967 32.4099C52.8143 32.0839 52.099 32.3168 51.8162 32.7992C51.5035 33.3316 51.7197 33.9505 52.2054 34.2799C55.9515 36.8153 61.025 37.138 64.9241 34.7557C65.8423 34.1934 66.694 33.5013 67.4326 32.716C67.8318 32.2901 67.8551 31.608 67.4326 31.1855C67.0101 30.7629 66.3048 30.7596 65.9022 31.1855V31.1822Z" fill="#1D1D1B"/>
<path d="M59.7674 26.9398C61.351 26.2411 62.7982 25.2629 64.0591 24.0784C65.3766 22.8406 66.5643 21.3799 67.2696 19.703C67.7686 18.5118 67.9383 17.3273 67.7952 16.0529C67.6056 14.3993 67.2529 12.7656 66.9269 11.1352C66.6973 9.98728 66.511 8.80942 66.185 7.68146C65.859 6.55351 65.0638 5.41558 64.2122 4.55048C62.5221 2.83692 60.2698 1.73559 58.0109 0.980295C55.5423 0.155126 52.934 -0.174276 50.3424 0.0885798C47.2983 0.398018 44.3839 1.36959 41.6592 2.74709C37.4008 4.90317 33.7279 7.9909 31.0265 11.9437C29.4995 14.1763 28.3417 16.6286 27.3936 19.1573C26.2291 22.2617 25.4473 25.4559 25.1213 28.7565C25.0548 29.4253 25.0082 30.0974 24.9816 30.7662C24.9583 31.3518 25.4972 31.8476 26.0628 31.8476C26.6683 31.8476 27.1174 31.3518 27.144 30.7662C27.2771 27.6153 27.8227 24.5974 28.8341 21.5396C29.1901 20.4716 29.5826 19.4102 30.0151 18.3721C30.0384 18.3155 30.0617 18.2589 30.085 18.2024C30.0717 18.239 30.0052 18.392 30.085 18.2024C30.1416 18.0693 30.2014 17.9362 30.258 17.8031C30.3877 17.5103 30.5208 17.2175 30.6606 16.928C30.9533 16.3191 31.2627 15.7169 31.5954 15.1279C33.0992 12.4561 34.9922 10.1004 37.3509 8.11734C37.5106 7.98092 37.6736 7.85116 37.84 7.71806C37.8899 7.67814 37.9364 7.64154 37.9863 7.60161C38.0695 7.53506 37.7634 7.7713 37.9897 7.59828C38.1361 7.48515 38.2858 7.37535 38.4355 7.26555C39.1973 6.70657 39.9858 6.18418 40.7976 5.69507C45.4386 2.90347 50.9412 1.2365 56.3141 2.72712C56.9928 2.91345 57.6615 3.13305 58.3203 3.38593C58.4334 3.42918 58.5432 3.47576 58.6563 3.51902C58.7128 3.54231 58.8925 3.61884 58.6663 3.51902C58.7195 3.54231 58.7694 3.56227 58.8226 3.58557C59.0821 3.69869 59.335 3.81848 59.5878 3.94159C60.1134 4.20111 60.6258 4.49059 61.1182 4.81001C61.351 4.96307 61.5806 5.12278 61.8035 5.29247C61.9565 5.40892 61.6139 5.13276 61.8601 5.33905C61.91 5.3823 61.9632 5.42223 62.0131 5.46549C62.1395 5.57196 62.2659 5.68176 62.389 5.79822C62.6086 6.00451 62.8215 6.21745 63.0178 6.44704C63.1076 6.54686 63.1941 6.65 63.2773 6.75648C63.1675 6.61673 63.274 6.75315 63.2906 6.77977C63.3472 6.86295 63.4071 6.9428 63.4636 7.02931C63.6333 7.28219 63.7863 7.54837 63.9194 7.82454C63.9493 7.88776 63.9793 7.94765 64.0059 8.01087C63.9294 7.84117 64.0225 8.04414 64.0358 8.08739C64.0491 8.13065 64.0658 8.1739 64.0791 8.21716C64.1789 8.54323 64.2421 8.88262 64.312 9.21535C64.6546 10.7792 64.9674 12.3497 65.2635 13.9235C65.3333 14.2861 65.3999 14.6455 65.4631 15.0082C65.4897 15.1679 65.5163 15.3276 65.5429 15.4873C65.5562 15.5705 65.5695 15.6537 65.5828 15.7368C65.5862 15.7668 65.6228 16.0296 65.6028 15.8766C65.5795 15.7102 65.6161 16.003 65.6194 16.003C65.6261 16.0596 65.6327 16.1162 65.6394 16.176C65.6527 16.2958 65.6627 16.4189 65.6727 16.542C65.6893 16.7683 65.696 16.9946 65.6893 17.2208C65.6893 17.304 65.6793 17.3905 65.676 17.4737C65.6594 17.7765 65.7292 17.2508 65.6693 17.5336C65.5828 17.9428 65.483 18.3454 65.3333 18.7414C65.0638 19.4468 64.628 20.1522 64.1589 20.7644C63.2141 21.9922 62.053 23.0968 60.7855 23.932C60.1134 24.3745 59.4048 24.7505 58.6696 25.0766C58.1339 25.3128 58.0109 26.0914 58.2803 26.5572C58.603 27.1095 59.2218 27.1827 59.7608 26.9465L59.7674 26.9398Z" fill="#1D1D1B"/>
<path d="M63.9835 26.4874C63.8338 25.6522 62.6859 25.3993 62.0039 25.2562C60.9259 25.0266 59.808 24.9202 58.7067 24.9168C56.2047 24.9102 53.2536 25.4459 51.7697 27.6853C50.5985 29.4556 50.9379 31.7815 51.7098 33.6316C51.8795 34.0376 52.139 34.3503 52.6081 34.4069C53.044 34.4602 53.4499 34.2672 53.6861 33.8911C54.987 31.8015 56.8768 30.0013 59.249 28.9864C60.2006 28.5771 61.2286 28.3176 62.2501 28.1212C63.0386 27.9682 63.9901 27.7985 64.0234 26.7802C64.0434 26.1946 63.511 25.6988 62.9421 25.6988C62.3399 25.6988 61.8808 26.1946 61.8608 26.7802C61.8575 26.91 62.2101 25.6489 62.5262 25.8485C62.5129 25.8419 62.4231 25.8818 62.4031 25.8851C62.2734 25.9084 62.1469 25.945 62.0172 25.9683C61.6479 26.0415 61.2785 26.1114 60.9092 26.1946C59.7082 26.4708 58.5403 26.8967 57.4457 27.4591C55.1034 28.6669 53.207 30.5769 51.8196 32.7997L53.7959 33.0593C53.2636 31.7815 52.8177 30.2808 53.4765 29.0463C53.533 28.9431 53.5963 28.8466 53.6595 28.7468C53.6927 28.6902 53.8125 28.5505 53.6495 28.7468C53.6828 28.7069 53.7127 28.667 53.746 28.6303C53.8258 28.5472 53.899 28.4606 53.9822 28.3808C54.0354 28.3275 54.3781 28.058 54.1452 28.2277C54.3349 28.088 54.5312 27.9615 54.7408 27.8484C54.8473 27.7918 54.9537 27.7419 55.0635 27.6887C55.1201 27.6587 55.2997 27.5955 55.0635 27.6853C55.14 27.6554 55.2166 27.6254 55.2931 27.5955C55.7822 27.4158 56.2912 27.2927 56.8036 27.2095C56.8868 27.1962 57.2461 27.1496 56.9866 27.1796C57.1296 27.1629 57.2727 27.1463 57.4158 27.133C57.6886 27.1097 57.9614 27.093 58.2309 27.0864C58.7433 27.0731 59.2557 27.0864 59.7647 27.1197C60.0076 27.1363 60.2505 27.1596 60.49 27.1862C60.5499 27.1929 60.6098 27.2028 60.6697 27.2095C60.6464 27.2095 60.4068 27.1696 60.5932 27.1995C60.7063 27.2162 60.8161 27.2328 60.9292 27.2528C61.3118 27.316 61.6944 27.3925 62.0637 27.509C62.1369 27.5323 62.2135 27.5689 62.29 27.5855C62.4131 27.6155 62.0105 27.4358 62.2068 27.5522C62.2268 27.5655 62.29 27.6155 62.3099 27.6121C62.1469 27.6221 61.9107 27.1596 61.8941 27.0664C61.9972 27.6421 62.6992 27.9648 63.2249 27.8218C63.8304 27.6554 64.0833 27.0697 63.9802 26.4908L63.9835 26.4874Z" fill="#1D1D1B"/>
<path d="M63.73 26.2613L63.8331 25.4194L63.8863 24.9968C63.893 24.9303 63.9063 24.8637 63.9096 24.7972C63.9096 24.7706 63.9096 24.7406 63.9096 24.714C63.9063 24.6241 63.8863 24.501 63.8697 24.4112C63.8697 24.3945 63.863 24.3746 63.8597 24.3579C63.7599 24.0285 63.5536 23.759 63.2608 23.576C63.2076 23.5427 63.1444 23.5227 63.0878 23.4961C63.0379 23.4728 62.9747 23.4429 62.9181 23.4262C62.9015 23.4196 62.8849 23.4196 62.8649 23.4163C62.7584 23.3963 62.642 23.3763 62.5322 23.373C62.4024 23.3697 62.266 23.393 62.1429 23.4196C62.0198 23.4462 61.8768 23.5128 61.7769 23.5627C61.6671 23.6192 61.5707 23.7024 61.4775 23.779C61.3777 23.8621 61.2879 23.9919 61.2213 24.0917C61.1415 24.2082 61.0916 24.3513 61.0417 24.4811C61.0184 24.541 61.0017 24.6009 60.9917 24.6641C60.9551 24.877 60.9319 25.0933 60.9252 25.3096C60.9185 25.5825 61.0483 25.8819 61.2413 26.0749C61.4343 26.2679 61.737 26.4044 62.0065 26.3911C62.276 26.3777 62.5754 26.2879 62.7717 26.0749C62.968 25.862 63.0812 25.6058 63.0878 25.3096C63.0878 25.2065 63.0945 25.1033 63.1078 25.0002L63.0679 25.2863C63.0812 25.2031 63.0978 25.1199 63.1311 25.0434L63.0213 25.303C63.0412 25.2564 63.0645 25.2131 63.0945 25.1732L62.9248 25.3928C62.9514 25.3595 62.978 25.3296 63.0113 25.303L62.7917 25.4727C62.8183 25.456 62.8449 25.4394 62.8716 25.4261L62.612 25.5359C62.652 25.5192 62.6952 25.5059 62.7385 25.5026L62.4523 25.5425C62.4889 25.5392 62.5255 25.5392 62.5621 25.5425L62.276 25.5026C62.3126 25.5093 62.3459 25.5159 62.3791 25.5292L62.1196 25.4194C62.1396 25.4294 62.1596 25.4394 62.1795 25.4527L61.9599 25.283C61.9766 25.2963 61.9932 25.3129 62.0065 25.3296L61.8368 25.11C61.8368 25.11 61.8568 25.1399 61.8634 25.1532L61.7537 24.8937C61.767 24.9236 61.7736 24.9502 61.7769 24.9835L61.737 24.6974C61.747 24.8171 61.7204 24.9403 61.7071 25.06L61.6572 25.466L61.5607 26.258C61.554 26.4077 61.5873 26.5441 61.6538 26.6739C61.6971 26.807 61.7736 26.9235 61.8768 27.0233C62.0631 27.2096 62.3725 27.3527 62.642 27.3394C62.9115 27.3261 63.2109 27.2362 63.4072 27.0233L63.5769 26.8037C63.6734 26.634 63.7233 26.4543 63.7233 26.258L63.73 26.2613Z" fill="#1D1D1B"/>
<path d="M62.0431 23.8255C61.7902 24.7972 61.6438 25.7954 61.5873 26.797C61.5573 27.3627 62.1063 27.9051 62.6686 27.8785C63.2808 27.8518 63.7166 27.4026 63.7499 26.797C63.7699 26.4376 63.8031 26.0816 63.8497 25.7222L63.8098 26.0084C63.883 25.466 63.9894 24.9269 64.1259 24.3979C64.1957 24.125 64.1591 23.8089 64.0161 23.566C63.8863 23.343 63.6268 23.1268 63.3706 23.0702C62.805 22.9404 62.1928 23.2399 62.0398 23.8255H62.0431Z" fill="#1D1D1B"/>
<path d="M62.7783 22.7874C62.5088 24.1417 62.2593 25.496 62.0297 26.857C61.9798 27.1531 61.9831 27.4227 62.1395 27.6889C62.2693 27.9118 62.5288 28.1281 62.785 28.1847C63.3073 28.3044 64.016 28.0249 64.1158 27.4293C64.3454 26.0684 64.5949 24.7107 64.8644 23.3598C64.9742 22.8074 64.7047 22.1652 64.1092 22.0287C63.5702 21.9056 62.8981 22.1918 62.7783 22.7841V22.7874Z" fill="#1D1D1B"/>
<path d="M54.428 15.8404C57.8549 15.8404 57.8582 10.5163 54.428 10.5163C50.9977 10.5163 50.9977 15.8404 54.428 15.8404Z" fill="#1D1D1B"/>
</svg>
