<svg width="48" height="67" viewBox="0 0 48 67" fill="none" xmlns="http://www.w3.org/2000/svg">
<path d="M38.0679 16.7343C38.0172 18.6838 37.58 20.6038 36.7814 22.382C35.983 24.1604 34.8392 25.7615 33.4171 27.092C31.0861 29.2608 27.7703 30.9651 25.797 30.9724C25.6219 30.9724 24.5312 30.9724 23.021 31.0236C22.5724 31.042 21.8318 31.0675 20.9929 31.1334C19.6464 31.2186 18.3063 31.3871 16.9805 31.6381C13.3073 32.3869 9.7967 33.7863 6.61359 35.7709C5.15914 36.5961 3.7916 37.5666 2.53181 38.6676C1.59445 39.5222 0.749573 40.4734 0.0112305 41.5057C0.0112305 41.1839 0.0112305 36.316 0.0112305 33.8252L0.124318 30.7164V28.7707C0.0294646 25.8887 0.0404228 23.0031 0.0404228 18.6178C0.0404228 17.7876 0.0404228 16.4599 0.0404228 14.8032C0.858022 10.7847 3.07408 7.1886 6.2926 4.65753C7.6386 3.5786 12.2311 -0.0897554 19.1617 0.0016793C24.4981 0.0700457 29.6058 2.18501 33.4353 5.91202C33.7271 6.20461 33.9641 6.46062 34.1027 6.61789C36.5833 9.4093 37.9893 12.9964 38.0679 16.7343Z" fill="#36A32C"/>
<path d="M30.1265 42.3725C28.2907 41.6769 26.3689 41.2351 24.4141 41.0596C26.5804 41.4708 28.6715 42.2108 30.6153 43.254C31.9257 43.9926 33.1663 44.8495 34.3214 45.8142C35.8055 46.9296 37.1699 48.197 38.3923 49.5959C39.3371 50.7011 40.1716 51.8968 40.8836 53.1655C41.8499 54.8918 42.5649 56.7478 43.0066 58.6773C42.1494 58.9626 36.7142 60.7144 32.1436 59.6391C31.0855 59.3833 30.0545 59.0255 29.065 58.5711C27.7433 57.969 26.5399 57.134 25.5122 56.1061C24.8884 55.5428 24.8811 55.455 23.3236 53.7434C21.6492 51.9147 20.8103 50.9748 19.7488 50.002C18.2495 48.623 17.5017 47.9354 16.4001 47.3868C14.6503 46.4923 12.6913 46.0903 10.7316 46.2238C8.74329 46.3606 6.83339 47.055 5.2199 48.228C4.02136 49.1445 3.08007 50.3566 2.48774 51.7464C1.84914 53.1323 1.56217 54.6552 1.65242 56.1792C1.65242 56.2304 1.65242 56.2816 1.65242 56.3291C0.581192 54.4667 0.0117194 52.3566 0 50.2068C0 41.0267 10.5784 33.5839 23.6081 33.5839C36.6377 33.5839 47.2123 41.0267 47.2123 50.2068C47.1739 53.1313 46.145 55.9557 44.2943 58.2163C43.7924 56.247 43.0138 54.3591 41.9816 52.6096C41.2382 51.3618 40.3837 50.1841 39.4281 49.0912C38.0894 47.5128 36.549 46.1184 34.8467 44.9437C33.3917 43.8841 31.805 43.0197 30.1265 42.3725Z" fill="#B0D606"/>
<path d="M39.1402 62.715C34.989 65.2752 29.5502 66.8295 23.5972 66.8295C15.8897 66.8295 9.04283 64.2292 4.73487 60.2061C4.64567 59.7076 4.58477 59.2045 4.5525 58.6992C4.4953 57.8775 4.51484 57.0521 4.61086 56.2341C4.67288 55.7221 4.75312 55.2905 4.82243 54.9723C5.02304 55.2502 5.29663 55.6124 5.64316 56.022C6.18398 56.6613 6.77299 57.2579 7.40501 57.8068C8.1888 58.5121 9.02134 59.1611 9.8964 59.7488C11.0551 60.5484 12.2979 61.218 13.6024 61.7457C15.7137 62.5632 17.96 62.9727 20.223 62.9527C18.0059 62.7814 15.8411 62.1907 13.8432 61.2118C12.7148 60.6219 11.6384 59.9367 10.626 59.1636C9.79702 58.5533 9.00526 57.8939 8.25492 57.1886C7.65015 56.6315 7.08232 56.0352 6.55509 55.4038C6.09047 54.8379 5.66397 54.2417 5.27839 53.619C5.53164 52.505 6.17976 51.5211 7.10225 50.8505C8.25775 50.0326 9.65058 49.6212 11.0636 49.6801C12.1927 49.7165 13.297 50.0225 14.2845 50.5725C14.9558 50.9382 15.317 51.2344 16.776 52.6206C19.0521 54.7821 20.3581 56.0878 20.3581 56.0878C22.6816 58.3993 22.5942 58.3444 22.9114 58.6077C24.2538 59.7088 25.74 60.6205 27.3289 61.3179C28.5035 61.828 29.7253 62.2212 30.9766 62.4918C32.6582 62.8394 36.0177 63.5598 39.1402 62.715Z" fill="#B0D606"/>
</svg>
